# xmcd
#
# Track frame offsets:
#	150
#	14400
#	29511
#	48695
#	62195
#	76632
#	91960
#	105155
#	119630
#	131688
#	148841
#	160289
#
# Disc length: 2401 seconds
#
# Revision: 1
# Processed by: cddbd v1.5.2PL0 Copyright (c) Steve Scherf et al.
# Submitted via: audiograbber 1.83.01
#
DISCID=a2095f0c
DTITLE=Covered Grass - DisCovered
DYEAR=2011
DGENRE=BlueGrass
TTITLE0=Grass Turns Blue
TTITLE1=I Can Go Back Anytime
TTITLE2=Fly Like An Eagle
TTITLE3=Fish
TTITLE4=Between The Years
TTITLE5=Soulmates
TTITLE6=I'll Stay Around
TTITLE7=Nellie Kane
TTITLE8=One Step Ahead Of The Blues
TTITLE9=When You Come Back Down
TTITLE10=Goodbye Old Pal
TTITLE11=In A Hundred Years
EXTD=www.covered-grass.de
EXTT0=
EXTT1=
EXTT2=
EXTT3=
EXTT4=
EXTT5=
EXTT6=
EXTT7=
EXTT8=
EXTT9=
EXTT10=
EXTT11=
PLAYORDER=
